<svg width="25" height="17" viewBox="0 0 25 17" fill="none" xmlns="http://www.w3.org/2000/svg">
<path d="M1 10.9081C1 13.6441 3.05949 15.8622 5.6 15.8622C8.14051 15.8622 10.2 13.6441 10.2 10.9081C10.2 8.17212 8.14051 5.95406 5.6 5.95406C3.05949 5.95406 1 8.17212 1 10.9081ZM1 10.9081V1" stroke="black" stroke-width="1.2" stroke-linecap="round" stroke-linejoin="round"/>
<path d="M24 10.9081C24 13.6441 21.9405 15.8622 19.4 15.8622C16.8595 15.8622 14.8 13.6441 14.8 10.9081C14.8 8.17212 16.8595 5.95406 19.4 5.95406C21.9405 5.95406 24 8.17212 24 10.9081ZM24 10.9081V1" stroke="black" stroke-width="1.2" stroke-linecap="round" stroke-linejoin="round"/>
<path d="M14.8 10.9081H10.2" stroke="black" stroke-width="1.2" stroke-linecap="round" stroke-linejoin="round"/>
</svg>
